<svg xmlns="http://www.w3.org/2000/svg" width="46.56" height="48.737" viewBox="0 0 46.56 48.737">
  <g id="jakość" transform="translate(-144.543 0.873)">
    <path id="Path_9" data-name="Path 9" d="M133.262,23.836l2.6,5.313a1.436,1.436,0,0,1-.617,1.9l-5.225,2.773a1.433,1.433,0,0,0-.74,1.019l-1.022,5.826a1.434,1.434,0,0,1-1.613,1.172l-5.856-.828a1.436,1.436,0,0,0-1.2.39l-4.252,4.112a1.433,1.433,0,0,1-1.993,0L109.091,41.4a1.434,1.434,0,0,0-1.2-.39l-5.857.828a1.434,1.434,0,0,1-1.613-1.172L99.4,34.838a1.429,1.429,0,0,0-.74-1.019l-5.225-2.773a1.436,1.436,0,0,1-.617-1.9l2.6-5.313a1.437,1.437,0,0,0,0-1.26l-2.6-5.313a1.436,1.436,0,0,1,.617-1.9l5.225-2.771a1.432,1.432,0,0,0,.74-1.02l1.022-5.826a1.434,1.434,0,0,1,1.613-1.172l5.857.828a1.428,1.428,0,0,0,1.2-.388L113.343.9a1.433,1.433,0,0,1,1.993,0l4.252,4.113a1.43,1.43,0,0,0,1.2.388l5.856-.828a1.434,1.434,0,0,1,1.613,1.172l1.022,5.826a1.436,1.436,0,0,0,.74,1.02l5.225,2.771a1.436,1.436,0,0,1,.617,1.9l-2.6,5.313A1.437,1.437,0,0,0,133.262,23.836Z" transform="translate(53.483 0.289)" fill="none" stroke="#000" stroke-linecap="round" stroke-linejoin="round" stroke-width="3"/>
    <path id="Path_10" data-name="Path 10" d="M101.741,18.657l7.367,4.943,8.512-12.741" transform="translate(58.716 6.266)" fill="none" stroke="#000" stroke-linecap="round" stroke-linejoin="round" stroke-width="3"/>
  </g>
</svg>