<svg xmlns="http://www.w3.org/2000/svg" width="41.737" height="44.89" viewBox="0 0 41.737 44.89">
  <path id="dom" d="M19.868,1.791,1.367,15.349A2.118,2.118,0,0,0,.5,17.059v24.5a2.119,2.119,0,0,0,2.12,2.118h8.264A2.119,2.119,0,0,0,13,41.563V28.914a2.119,2.119,0,0,1,2.118-2.12h9.494a2.12,2.12,0,0,1,2.12,2.12V41.563a2.117,2.117,0,0,0,2.118,2.118h8.264a2.119,2.119,0,0,0,2.12-2.118v-24.5a2.118,2.118,0,0,0-.867-1.71Z" transform="translate(1 -0.291)" fill="none" stroke="#000" stroke-linecap="round" stroke-linejoin="round" stroke-width="3"/>
</svg>