<svg xmlns="http://www.w3.org/2000/svg" width="64.618" height="41.622" viewBox="0 0 64.618 41.622">
  <g id="mail2" transform="translate(-88.22 -7.5)">
    <path id="Rectangle_4" data-name="Rectangle 4" d="M1.415,0H60.2a1.415,1.415,0,0,1,1.415,1.415V37.208A1.414,1.414,0,0,1,60.2,38.622H1.415A1.415,1.415,0,0,1,0,37.207V1.415A1.415,1.415,0,0,1,1.415,0Z" transform="translate(89.72 9)" fill="none" stroke="#000" stroke-linecap="round" stroke-linejoin="round" stroke-width="3"></path>
    <path id="Path_15" data-name="Path 15" d="M38.181,4.5l26.464,20a4.242,4.242,0,0,0,5.117,0L96.125,4.6" transform="translate(53.325 6.287)" fill="none" stroke="#000" stroke-linecap="round" stroke-linejoin="round" stroke-width="3"></path>
    <line id="Line_7" data-name="Line 7" x1="23.712" y2="17.905" transform="translate(91.507 28.669)" fill="none" stroke="#000" stroke-linecap="round" stroke-linejoin="round" stroke-width="3"></line>
    <line id="Line_8" data-name="Line 8" x1="23.684" y1="17.905" transform="translate(125.767 28.77)" fill="none" stroke="#000" stroke-linecap="round" stroke-linejoin="round" stroke-width="3"></line>
  </g>
</svg>