<svg xmlns="http://www.w3.org/2000/svg" width="46.829" height="44.733" viewBox="0 0 46.829 44.733">
  <g id="dokument" transform="translate(-215.84 -1.128)">
    <path id="Path_11" data-name="Path 11" d="M141.4,35.377V7.077a5.411,5.411,0,0,1,5.411-5.411H175.08" transform="translate(81.605 0.962)" fill="none" stroke="#000" stroke-linecap="round" stroke-linejoin="round" stroke-width="3"/>
    <path id="Path_12" data-name="Path 12" d="M174,5.666V37.273a3.82,3.82,0,0,1-7.64,0v-4.2h-28.55v4.055a3.968,3.968,0,0,0,3.97,3.968h28.4" transform="translate(79.531 3.27)" fill="none" stroke="#000" stroke-linecap="round" stroke-linejoin="round" stroke-width="3"/>
    <path id="Path_13" data-name="Path 13" d="M168.4,12.255h-7.64V5.484a3.82,3.82,0,0,1,7.64,0Z" transform="translate(92.774 0.962)" fill="none" stroke="#000" stroke-linecap="round" stroke-linejoin="round" stroke-width="3"/>
    <line id="Line_4" data-name="Line 4" x2="8.493" transform="translate(231.354 12.025)" fill="none" stroke="#000" stroke-linecap="round" stroke-linejoin="round" stroke-width="3"/>
    <line id="Line_5" data-name="Line 5" x2="10.07" transform="translate(231.354 19.125)" fill="none" stroke="#000" stroke-linecap="round" stroke-linejoin="round" stroke-width="3"/>
    <line id="Line_6" data-name="Line 6" x2="13.224" transform="translate(231.354 26.225)" fill="none" stroke="#000" stroke-linecap="round" stroke-linejoin="round" stroke-width="3"/>
  </g>
</svg>